<?xml version="1.0" standalone="no"?>
<!DOCTYPE svg PUBLIC "-//W3C//DTD SVG 20010904//EN"
 "http://www.w3.org/TR/2001/REC-SVG-20010904/DTD/svg10.dtd">
<svg version="1.0" xmlns="http://www.w3.org/2000/svg"
 width="616.000000pt" height="405.000000pt" viewBox="0 0 616.000000 405.000000"
 preserveAspectRatio="xMidYMid meet">

<g transform="translate(0.000000,405.000000) scale(0.100000,-0.100000)"
 stroke="none">
<path d="M2001 2973 c-33 -17 -46 -45 -298 -633 -168 -392 -263 -626 -263
-648 0 -74 69 -100 239 -88 81 6 99 10 117 29 12 12 97 203 189 425 93 221
172 399 176 395 3 -5 61 -138 127 -298 67 -159 155 -370 196 -468 41 -98 78
-187 81 -198 6 -19 -4 -19 -603 -19 -584 0 -610 -1 -626 -19 -26 -28 -106
-219 -106 -252 0 -15 11 -41 24 -56 l24 -28 876 0 876 0 27 27 c19 19 27 38
27 60 -1 19 -55 160 -131 338 -72 168 -235 550 -363 850 -138 325 -242 555
-256 570 -23 24 -30 25 -162 28 -116 3 -142 0 -171 -15z" />
<path d="M3485 2983 c-11 -3 -30 -14 -42 -26 -22 -19 -23 -29 -23 -149 0 -124
1 -130 25 -153 l24 -25 471 0 c258 0 470 -3 470 -6 0 -4 -56 -73 -125 -156
-71 -84 -125 -158 -126 -171 -3 -46 3 -63 27 -84 24 -22 34 -23 177 -23 l153
0 40 43 c61 63 349 409 362 434 7 13 12 69 12 142 0 112 -2 122 -24 148 l-24
28 -689 1 c-378 1 -697 0 -708 -3z" fill="#8142f5"/>
<path d="M3830 1893 c-8 -3 -23 -13 -34 -22 -19 -17 -212 -244 -329 -389 l-67
-83 0 -123 c0 -120 1 -124 26 -150 l27 -26 714 0 714 0 24 26 c24 26 25 33 25
151 0 184 34 169 -394 178 -191 4 -395 5 -454 1 -59 -4 -119 -3 -133 1 -26 8
-24 11 102 163 99 118 129 161 129 183 0 77 -45 97 -212 96 -68 0 -130 -3
-138 -6z"/>
</g>
</svg>
